<svg width="116" height="117" viewBox="0 0 116 117" fill="none" xmlns="http://www.w3.org/2000/svg">
<g filter="url(#filter0_d_201_5859)">
<rect x="71" y="71.5" width="56" height="56" rx="28" transform="rotate(-180 71 71.5)" fill="white" shape-rendering="crispEdges"/>
<path d="M38.7459 51.2589C38.4478 50.9667 38.4207 50.5095 38.6646 50.1873L38.7459 50.095L45.4734 43.5L38.7459 36.905C38.4478 36.6128 38.4207 36.1556 38.6646 35.8334L38.7459 35.7411C39.044 35.4489 39.5104 35.4223 39.839 35.6614L39.9332 35.7411L47.2541 42.918C47.5522 43.2102 47.5793 43.6675 47.3354 43.9897L47.2541 44.082L39.9332 51.2589C39.6053 51.5804 39.0738 51.5804 38.7459 51.2589Z" fill="black"/>
</g>
<defs>
<filter id="filter0_d_201_5859" x="0" y="0.5" width="116" height="116" filterUnits="userSpaceOnUse" color-interpolation-filters="sRGB">
<feFlood flood-opacity="0" result="BackgroundImageFix"/>
<feColorMatrix in="SourceAlpha" type="matrix" values="0 0 0 0 0 0 0 0 0 0 0 0 0 0 0 0 0 0 127 0" result="hardAlpha"/>
<feOffset dx="15" dy="15"/>
<feGaussianBlur stdDeviation="15"/>
<feComposite in2="hardAlpha" operator="out"/>
<feColorMatrix type="matrix" values="0 0 0 0 0.184314 0 0 0 0 0.501961 0 0 0 0 0.929412 0 0 0 0.1 0"/>
<feBlend mode="normal" in2="BackgroundImageFix" result="effect1_dropShadow_201_5859"/>
<feBlend mode="normal" in="SourceGraphic" in2="effect1_dropShadow_201_5859" result="shape"/>
</filter>
</defs>
</svg>
